<?xml version="1.0" encoding="UTF-8"?>
<!DOCTYPE svg PUBLIC "-//W3C//DTD SVG 1.1//EN" "http://www.w3.org/Graphics/SVG/1.1/DTD/svg11.dtd">
<!-- Creator: CorelDRAW -->
<svg xmlns="http://www.w3.org/2000/svg" xml:space="preserve" width="297mm" height="210mm" style="shape-rendering:geometricPrecision; text-rendering:geometricPrecision; image-rendering:optimizeQuality; fill-rule:evenodd; clip-rule:evenodd"
viewBox="0 0 297 210"
 xmlns:xlink="http://www.w3.org/1999/xlink">
 <defs>
  <style type="text/css">
   <![CDATA[
    .fil6 {fill:#798992}
    .fil2 {fill:black}
    .fil5 {fill:#325B80}
    .fil9 {fill:#4A4F54}
    .fil4 {fill:#606870}
    .fil12 {fill:#797975}
    .fil7 {fill:#999999}
    .fil3 {fill:#B2BECA}
    .fil10 {fill:#E5E5DC}
    .fil8 {fill:#F7F4F4}
    .fil11 {fill:white}
    .fil0 {fill:#B2BECA;fill-rule:nonzero}
    .fil1 {fill:#141516;fill-rule:nonzero}
   ]]>
  </style>
 </defs>
 <g id="Ebene_x0020_1">
  <metadata id="CorelCorpID_0Corel-Layer"/>
  <g id="_152285376">
   <path id="_152285520" class="fil0" d="M148.023 109.435c0,-1.0101 -0.4291,-1.4829 -2.0692,-1.4829 -1.5491,0 -1.9641,0.4739 -1.9641,1.4829l0 10.6973c0,1.0361 0.415,1.5843 1.9641,1.5843 1.6401,0 2.0692,-0.5477 2.0692,-1.5843l0 -10.6973zm4.7786 11.7514c0,3.5576 -2.0611,5.3373 -6.8478,5.3373 -4.6919,0 -6.5781,-1.7797 -6.5781,-5.3373l0 -11.8138c0,-3.5564 1.8862,-5.3374 6.5781,-5.3374 4.7867,0 6.8478,1.781 6.8478,5.3374l0 11.8138zm9.4225 -0.9815c0,1.0093 0.7974,1.5139 2.3933,1.5139 1.4596,0 1.333,-0.4179 1.333,-1.2859l0 -11.228c0,-1.0373 -0.1356,-1.3534 -1.9297,-1.3534 -1.5956,0 -1.7966,0.3171 -1.7966,1.3534l0 11zm2.325 8.9691c1.6399,0 2.4622,-0.5191 2.4622,-1.5519l0 -2.5367c-0.5484,0.6063 -1.939,0.9087 -4.1726,0.9087 -3.5526,0 -5.7932,-1.7782 -5.7932,-5.3397l0 -11.2818c0,-3.5564 2.2406,-5.3374 5.7932,-5.3374 1.4594,0 2.8485,0.3418 4.1726,1.0235l0 -1.0235 4.7169 0 0 22.4885c0,3.5587 -2.3924,5.3374 -7.1791,5.3374 -4.1932,0 -6.5176,-1.3744 -6.9734,-4.1255l4.6484 0c0.0912,0.9582 0.8662,1.4384 2.325,1.4384zm16.2693 -24.2311c0.5474,-0.603 1.914,-0.9077 4.1031,-0.9077l0 5.9581c-0.4104,-0.3793 -1.2137,-0.468 -1.9418,-0.468 -1.5952,0 -2.1613,-0.0281 -2.1613,0.9805l0 16.0179 -4.7177 0 0 -22.4885 4.7177 0 0 0.9077zm11.8945 7.1464l4.1043 0 0.0164 -3.5475c0.0043,-1.0099 -0.3884,-1.1494 -2.0624,-1.1654 -1.5499,-0.0151 -2.0583,0.2228 -2.0583,1.2326l0 3.4803zm0 8.0994c0,1.0358 0.3769,1.4877 1.9261,1.4877 1.6406,0 2.2952,-0.286 2.2952,-1.3196l0 -2.2247 5.2504 0 0.0329 3.0543c0.0384,3.5569 -2.4937,5.1052 -7.2782,5.1052 -4.6949,0 -7.3433,-1.6138 -7.3433,-5.1725l0 -11.8128c0,-3.5576 2.7501,-5.2711 7.4419,-5.2711 4.7867,0 7.1796,1.781 7.1796,5.3374l0 6.3988 -9.5046 0 0 4.4173z"/>
   <path id="_152285696" class="fil0" d="M227.305 101.914l-5.1469 0 0 -3.9147 5.1469 0 0 3.9147zm-7.1787 26.5023c2.0206,0.0162 2.3607,0.0882 2.3607,-1.0402l0 -21.9116c-0.0008,-1.6983 4.8143,-1.8115 4.818,-0.0649l0 21.086c0,3.5756 0.5659,5.5826 -7.1454,5.5826l-0.0333 -3.6519z"/>
   <path id="_152285888" class="fil1" d="M214.277 124.986l0 -7.1079 -9.8555 0 0 -2.0736 9.3064 -17.6793 2.9392 0 0 17.6793 1.9003 0 0 2.0736 -1.9003 0 0 7.1079 -2.3901 0zm0 -9.1815l0 -13.3176 -7.3552 13.3176 7.3552 0z"/>
   <path id="_152172944" class="fil2" d="M118.403 98.3014c4.5215,-1.0363 4.0102,-4.8436 8.1484,-0.4667 4.7721,5.0464 0.575,19.3915 -0.6703,23.8756 -1.677,6.0253 -5.9012,6.5639 -8.5537,4.2952 -0.6219,-0.4736 -0.8591,-0.9269 -0.787,-1.9122l0.1393 -3.3008c0.0609,-0.9201 0.692,-0.8235 1.1691,-0.2109 0.8136,0.9494 1.5544,1.9757 1.828,2.0973 4.2208,1.8776 5.4939,-13.774 5.4405,-17.3276 -0.1355,-8.8561 -4.3101,-2.1615 -7.0796,-1.2776 -0.5383,0.2973 -0.6501,0.0202 -0.6208,-0.6106l0.1876 -4.346c0.015,-0.5712 0.2931,-0.7257 0.7985,-0.8157z"/>
   <path id="_152171592" class="fil3" d="M71.503 97.3166l14.9482 3.9182c1.405,0.3801 1.5835,1.3502 1.5883,2.3661l0.0182 39.9183c-0.0202,1.291 -0.6834,1.7848 -1.8677,1.626l-11.0565 -2.7304c-1.0296,-0.2834 -1.7087,-0.8298 -1.7628,-1.8482l-3.6742 -41.4457c-0.1234,-1.4379 0.8126,-2.0586 1.8065,-1.8043z"/>
   <path id="_152286136" class="fil4" d="M114.403 94.941l-23.8794 6.4511c-1.1929,0.3967 -1.7453,1.0809 -1.762,2.0025l-0.0185 40.6788c0.0054,1.2662 1.3856,2.3785 3.2675,1.7274l20.8231 -6.9001c1.4012,-0.4081 2.5716,-1.7216 2.726,-3.7532l1.6169 -38.8192c0.0218,-1.488 -1.0037,-1.851 -2.7736,-1.3873z"/>
   <path id="_152287488" class="fil5" d="M96.4317 91.7967l14.3467 1.7314c3.3025,0.6167 2.8497,1.0475 -0.2736,1.8172l-19.522 5.1245c-2.4626,0.6467 -2.6025,0.5193 -5.0656,-0.0693l-12.482 -3.2126c-3.1987,-0.603 -2.9054,-1.1719 2.0388,-2.1812l14.3566 -3.3766 6.6011 0.1666z"/>
   <path id="_152287344" class="fil3" d="M96.1639 64.0082c1.5552,2.5855 -2.0379,3.947 -1.2129,6.6544 0.5136,2.0707 7.1093,2.7878 6.9136,5.571 -0.0733,2.2219 -5.4537,5.2216 -9.3752,5.5758 -5.2109,0.2946 -4.7111,6.1692 -0.0556,5.9485 6.0322,-0.0769 9.3931,0.915 4.031,6.5672 -1.3239,1.7122 -2.7167,2.9379 -4.2542,3.8186 -2.3881,1.0697 -7.22,-3.3878 -3.988,-5.0067 1.6151,-0.8167 1.2042,-2.3142 -2.5216,-5.304 -5.5035,-3.3708 -4.5897,-5.1632 0.9489,-6.9796 2.6998,-0.7908 7.711,-2.9574 7.8721,-4.436 -0.0539,-1.0697 -4.3898,-2.5991 -4.9394,-4.3586 -0.0271,-1.4943 2.4292,-4.3157 6.5813,-8.0506z"/>
   <g>
    <path id="_152177136" class="fil2" d="M85.5473 140.272c-0.5934,-0.0632 -1.4361,-0.2144 -1.9276,-0.3469 -0.4817,-0.1299 -1.1825,-0.3011 -1.558,-0.381 -0.621,-0.1332 -0.8159,-0.2258 -2.2032,-1.05 -1.4923,-0.8847 -1.5398,-0.9213 -2.4214,-1.8419l-0.8999 -0.9391 -0.3256 -1.2191c-0.3457,-1.2852 -0.3411,-1.2331 -0.1816,-2.5461l0.043 -0.3621 -0.6695 -0.3448 -0.6705 -0.3449 -0.2579 -0.7476 -0.2551 -0.7459 0.1663 -1.5259c0.1778,-1.6404 0.1275,-1.4593 0.9975,-3.5703 0.2753,-0.6725 0.4154,-0.9003 0.8217,-1.3471 0.271,-0.2943 0.6038,-0.5835 0.7375,-0.6412 0.3775,-0.1623 2.3059,-0.3575 3.0586,-0.3115l0.6569 0.0435 0.1188 -0.4417c0.3269,-1.2192 0.9992,-2.5992 2.2308,-4.5827l0.5107 -0.8267 -0.2384 -0.3095c-0.1318,-0.1729 -0.3042,-0.5009 -0.3806,-0.7342 -0.2523,-0.7611 0.0271,-1.6116 0.685,-2.0748 0.1828,-0.1285 0.4609,-0.2822 0.6164,-0.3365l0.2834 -0.0984 0 -0.7279c0,-0.537 0.0331,-0.7866 0.1272,-0.9595 0.0708,-0.127 0.1767,-0.3403 0.2367,-0.4716 0.0599,-0.1317 0.247,-0.3416 0.4146,-0.4654 0.1833,-0.133 0.3777,-0.3783 0.4915,-0.6154 0.1535,-0.3171 0.3722,-0.5444 1.1267,-1.1714 1.9157,-1.5934 3.0477,-2.133 5.0526,-2.4129l0.9502 -0.1324 1.4313 0.2874c1.9107,0.3841 3.6715,1.0632 4.8696,1.8778 0.4354,0.2944 0.8256,0.5388 0.8693,0.5368 0.0417,-0.0012 0.4005,-0.1517 0.7952,-0.3342 0.8728,-0.4013 2.4522,-1.3398 3.9735,-2.3585 1.4109,-0.9426 3.0139,-1.7661 4.697,-2.4045 1.385,-0.5286 1.6154,-0.5532 1.7094,-0.1835 0.0291,0.1122 -0.2134,0.8399 -0.6981,2.1134 -0.4055,1.0685 -0.802,2.1173 -0.8796,2.3304 -0.0779,0.2134 -0.7608,1.6222 -1.5195,3.1334 -1.2263,2.4412 -1.4382,2.9211 -1.91,4.32l-0.5289 1.5716 -0.0822 1.754c-0.0814,1.8201 -0.1527,2.3951 -0.3317,2.658 -0.0923,0.1345 -0.0677,0.2688 0.2248,1.1623 0.3815,1.1636 0.4503,1.9357 0.2265,2.5069 -0.1221,0.3057 -0.1196,0.3595 0.0756,1.3929 0.1988,1.0515 0.2013,1.1155 0.1596,3.2451 -0.0235,1.1929 -0.0771,2.2599 -0.1173,2.3673 -0.041,0.109 -0.5618,0.9742 -1.1573,1.9216 -0.7863,1.2553 -1.163,1.7858 -1.3853,1.9473 -0.1653,0.1239 -0.959,0.8584 -1.763,1.6336 -0.8038,0.7742 -1.5357,1.4473 -1.6267,1.4955 -0.0888,0.0473 -0.91,0.3148 -1.8245,0.5942l-1.6629 0.5054 -0.6614 -0.096c-0.5831,-0.0822 -0.823,-0.0749 -2.1145,0.0826 -2.2303,0.2708 -5.4534,0.5805 -6.2962,0.6091 -0.4166,0.0116 -1.2305,-0.0286 -1.8095,-0.087z"/>
    <path id="_152177304" class="fil4" d="M87.9247 139.337c-0.1464,-0.0161 -0.9294,-0.0591 -1.7395,-0.0988 -1.4088,-0.0698 -1.5398,-0.09 -2.9875,-0.4662l-1.51 -0.3927 -1.0545 -0.7155c-0.5778,-0.3919 -1.1168,-0.7808 -1.1947,-0.8668 -0.2834,-0.3061 -0.8864,-1.4163 -1.1145,-2.0492 -0.2172,-0.6012 -0.2313,-0.7034 -0.2114,-1.537 0.0205,-0.8708 0.0253,-0.8958 0.2031,-0.937 0.18,-0.0432 0.18,-0.045 -0.0764,-0.2561 -0.1408,-0.1194 -0.7757,-0.5656 -1.4085,-0.9949 -0.8086,-0.5487 -1.2283,-0.8877 -1.4053,-1.1292l-0.2518 -0.3482 0.1395 -0.8229c0.0749,-0.4524 0.1576,-1.1171 0.1821,-1.4796 0.043,-0.6266 0.0779,-0.7295 0.7236,-2.1279l0.6799 -1.473 0.4601 -0.307c0.9168,-0.6101 1.1646,-0.6786 2.4005,-0.6629 2.1519,0.0306 2.361,0.0723 5.7705,1.2189 0.8239,0.2766 1.5132,0.4895 1.5309,0.4713 0.1292,-0.133 -4.3933,-1.5992 -5.3488,-1.7304 -0.3239,-0.046 -0.3466,-0.064 -0.2859,-0.2147 0.0369,-0.0892 0.1565,-0.4882 0.2639,-0.8867 0.113,-0.428 0.4076,-1.1645 0.7186,-1.7981 0.4503,-0.9204 0.5269,-1.133 0.5269,-1.4796 0.0005,-0.3742 0.043,-0.4817 0.5244,-1.2395l0.5244 -0.8295 -0.2966 -0.3833c-0.2625,-0.3393 -0.3029,-0.4516 -0.3487,-0.9254l-0.047 -0.5378 0.383 -0.4118c0.3694,-0.399 0.7242,-0.6337 1.3193,-0.8741l0.2847 -0.1128 -0.0096 -0.6427c-0.021,-1.2078 0.0256,-1.3357 0.6771,-2.0201 0.4534,-0.4721 0.7449,-0.6943 1.3565,-1.0314 0.4296,-0.2356 0.7661,-0.4472 0.7451,-0.4657 -0.0192,-0.0207 -0.1332,0.0157 -0.2495,0.0761 -0.1783,0.0943 -0.8961,0.2857 -1.0615,0.2857 -0.1529,0 1.7085,-1.3514 2.383,-1.7309 0.9171,-0.5176 1.0066,-0.5484 1.9423,-0.7019 1.383,-0.224 2.5109,-0.3044 2.8545,-0.2007 0.951,0.2859 4.01,1.7097 4.4009,2.0502l0.2263 0.1972 -0.2114 0.0008c-0.1861,0 -0.2007,0.018 -0.1287,0.152 0.1105,0.2141 0.6205,0.4649 0.9386,0.4649 0.4252,0 2.39,-0.9491 2.6596,-1.2834 0.0442,-0.0566 0.5398,-0.3762 1.0988,-0.7132 0.5588,-0.3328 1.5248,-0.9484 2.1473,-1.3661 1.377,-0.9231 2.9984,-1.7565 4.5989,-2.3703 0.6616,-0.2526 1.2138,-0.4478 1.2272,-0.4319 0.0152,0.0159 -0.2121,0.6508 -0.5079,1.4129 -0.293,0.7653 -0.6824,1.7888 -0.8624,2.2788 -0.1793,0.4887 -0.9403,2.1079 -1.6885,3.5953 -1.2427,2.4669 -1.4151,2.8588 -1.9332,4.3936l-0.5676 1.6871 -0.0794 1.7168c-0.0912,2.0019 -0.118,2.2323 -0.3148,2.5726l-0.1458 0.2541 0.271 0.7957c0.2169,0.6386 0.2723,0.9206 0.2786,1.4197 0.0162,1.0662 -0.0591,1.3718 -0.4389,1.7519l-0.1224 0.3168 0.1305 0.6695c0.1026,0.5269 0.1287,1.0326 0.1191,2.4007l-0.0117 1.7309 -0.4447 0.8232c-0.2511,0.4592 -0.6665,1.4275 -0.9504,2.2121l-0.5029 1.3923 -1.5233 1.5724c-1.0925,1.1305 -1.6182,1.6184 -1.8634,1.7297 -0.1856,0.0867 -0.846,0.3274 -1.4632,0.5358 -0.8546,0.2879 -1.2349,0.3782 -1.5888,0.3782 -0.6645,0 -3.4113,-0.2981 -3.656,-0.3972 -0.3887,-0.1547 -2.3947,-0.7573 -2.424,-0.7297 -0.0147,0.0162 0.0091,0.0984 0.0506,0.1775 0.045,0.0872 0.3522,0.2586 0.7231,0.4063 0.6634,0.2609 0.9067,0.4326 0.7132,0.4983 -1.1516,0.395 -3.056,0.641 -4.1465,0.5345zm-0.2088 -3.0236c-0.6334,-0.3234 -1.1729,-0.5666 -1.1947,-0.5426 -0.0713,0.0728 1.243,0.8343 1.7004,0.9876 0.7784,0.2568 0.651,0.1458 -0.5057,-0.445zm11.1225 -6.2577c0.4855,-0.1082 0.6081,-0.173 0.8748,-0.4506 0.2991,-0.31 0.3123,-0.3489 0.3859,-1.027 0.0505,-0.4539 0.0515,-0.7957 0.0068,-0.9613 -0.0637,-0.2195 -0.0736,-0.1605 -0.0819,0.3785 -0.0043,0.5661 -0.0294,0.6733 -0.2324,1.0005l-0.225 0.3663 0 -1.255c0,-0.889 -0.0481,-1.5628 -0.1598,-2.3047 -0.1419,-0.9397 -0.4281,-2.0512 -0.4417,-1.7157 -0.0031,0.0718 0.0308,0.225 0.0748,0.3436 0.199,0.5317 0.3709,2.1792 0.3722,3.519 0.001,1.9023 0.0447,1.7853 -0.7047,1.9688 -0.5676,0.1409 -0.6781,0.1441 -1.3994,0.0521 -0.7646,-0.0976 -0.8043,-0.1145 -1.8879,-0.7264 -1.1376,-0.6437 -1.827,-1.1089 -1.827,-1.2348 0,-0.0387 -0.0251,-0.0605 -0.0572,-0.0504 -0.094,0.0316 -0.6945,-0.4389 -0.6968,-0.5461 -0.0018,-0.0556 -0.0301,-0.0814 -0.0667,-0.0599 -0.0354,0.0217 -0.3156,-0.1494 -0.619,-0.381 -0.3031,-0.2337 -0.5868,-0.4256 -0.6303,-0.4256 -0.1014,0 -0.1178,-0.0154 1.2758,1.1922 0.894,0.7711 1.3984,1.1466 1.9271,1.43 1.0804,0.576 1.6392,0.7939 2.3064,0.8986 0.8558,0.1345 1.1658,0.133 1.806,-0.0111zm5.6408 -6.1751c0,-0.0192 -0.0402,-0.1236 -0.088,-0.2318 -0.0817,-0.1821 -0.1557,-0.2311 -0.3125,-0.2041 -0.1831,0.0322 -0.3426,-0.1709 -0.3881,-0.493 -0.0298,-0.1929 -0.086,-0.3514 -0.1284,-0.3514 -0.0448,0 -0.0536,0.072 -0.0223,0.1757 0.0981,0.3074 0.1755,0.71 0.1444,0.7408 -0.0792,0.0829 -1.0296,-0.7092 -1.421,-1.1873 -0.5254,-0.6361 -0.7539,-1.0731 -0.8872,-1.6811 -0.0882,-0.402 -0.0814,-0.4703 0.0468,-0.7158 0.0774,-0.1479 0.1982,-0.2715 0.264,-0.2715 0.1749,0 0.3853,-0.2635 0.3307,-0.4139 -0.0683,-0.1758 -0.1507,-0.1611 -0.4723,0.0847 -0.1548,0.113 -0.2872,0.2139 -0.2991,0.2187 -0.0117,0.0053 -0.0463,0.2169 -0.0782,0.4677 -0.072,0.5562 0.0233,0.9284 0.4046,1.5977 0.5582,0.9732 1.1835,1.6267 1.9509,2.0411 0.3924,0.2099 0.9557,0.3426 0.9557,0.2235zm-4.2014 -4.9725c0.4521,-0.4043 0.9244,-0.6407 1.427,-0.7115l0.3924 -0.0533 -0.3684 -0.0645c-0.3292,-0.0561 -0.4187,-0.0379 -0.787,0.1603 -0.5287,0.2855 -1.2797,1.0591 -1.376,1.4212 -0.1368,0.4961 -0.0809,0.51 0.1401,0.0369 0.1345,-0.29 0.3507,-0.5899 0.5719,-0.7891zm-20.1399 19.0075c-0.2286,-0.1262 -0.6541,-0.3578 -0.9431,-0.5095 -0.3477,-0.1848 -0.7952,-0.5385 -1.3375,-1.0596 -0.7125,-0.6849 -0.8334,-0.8397 -0.9805,-1.2483 -0.0946,-0.2568 -0.1942,-0.4847 -0.2256,-0.5059 -0.0305,-0.0238 -0.0776,-0.1446 -0.1079,-0.271 -0.0286,-0.127 -0.1039,-0.3141 -0.1641,-0.4132 -0.0731,-0.1208 -0.0989,-0.3021 -0.0736,-0.5413 0.0336,-0.334 0.3434,-1.719 0.3972,-1.7797 0.0139,-0.0167 0.2336,0.0533 0.4903,0.1535 0.6149,0.2414 0.6538,0.3337 0.5393,1.2904 -0.0898,0.733 -0.0875,0.7654 0.1292,1.5421 0.178,0.6341 0.3309,0.9641 0.7577,1.6626 0.5163,0.8362 0.5646,0.8878 1.2546,1.3684 0.6323,0.4372 0.7722,0.5459 0.6993,0.5454 -0.0123,0 -0.2083,-0.1042 -0.4353,-0.2339z"/>
    <path id="_152177952" class="fil6" d="M78.7779 134.806c-0.287,-0.1492 -0.527,-0.3332 -0.5826,-0.4452 -0.1097,-0.223 -0.1393,-2.0126 -0.0323,-2.0126 0.0359,0 0.2154,0.0685 0.3967,0.1499 0.1817,0.0824 0.7784,0.2716 1.3304,0.4205 1.5001,0.4033 1.4773,0.338 0.472,1.2968 -0.4619,0.4402 -0.8978,0.8113 -0.9678,0.8215 -0.0703,0.0116 -0.3467,-0.0936 -0.6164,-0.2309zm-2.3815 -1.2958c-0.0561,-0.3398 0.1686,-1.7036 0.2581,-1.5572 0.0268,0.042 0.2476,0.2154 0.4953,0.3889 0.3257,0.2242 0.4733,0.2885 0.5424,0.2295 0.0741,-0.0629 0.0877,-0.0245 0.0617,0.177 -0.0175,0.1411 -0.0516,0.4238 -0.0754,0.6243 -0.043,0.3562 -0.0543,0.3676 -0.294,0.3676 -0.1386,0 -0.4048,0.0223 -0.5914,0.0485l-0.3431 0.0486 -0.0536 -0.3272zm7.7158 -2.3625c-0.4533,-0.2273 -0.9297,-0.5264 -1.0591,-0.6614l-0.2324 -0.247 0.3393 0.2296c0.1899,0.1254 0.6989,0.3524 1.1347,0.5059 0.661,0.2341 0.8706,0.2733 1.2473,0.2478l0.4543 -0.0342 -0.3772 0.1446c-0.2091,0.0772 -0.4463,0.1624 -0.531,0.1844 -0.0948,0.0283 -0.4568,-0.11 -0.9759,-0.3697zm13.4496 -0.9254l-0.3008 -0.1067 0.4604 0.0445c0.3034,0.0266 0.6675,-0.003 1.0589,-0.0897 0.5094,-0.1166 0.6434,-0.1788 0.9165,-0.4511 0.2639,-0.2622 0.3287,-0.3881 0.3696,-0.6945 0.0412,-0.3082 0.0698,-0.3654 0.1697,-0.3201 0.069,0.0293 0.2677,0.0925 0.4447,0.1375 0.4422,0.1136 0.4152,0.2728 -0.1241,0.6994 -0.2458,0.1924 -0.53,0.4518 -0.6296,0.5759 -0.1828,0.2218 -0.2035,0.2248 -1.1261,0.2698 -0.692,0.0311 -1.0151,0.0152 -1.2392,-0.065zm-22.3115 -0.583c-0.0551,-0.0579 -0.0357,-0.3368 0.0627,-0.9115 0.0748,-0.4551 0.1578,-1.1226 0.183,-1.4851 0.0423,-0.6124 0.0847,-0.7411 0.62,-1.911 0.3173,-0.6912 0.5868,-1.2419 0.601,-1.2275 0.0129,0.0116 -0.0154,0.1143 -0.0658,0.2243 -0.072,0.1618 -0.0675,0.2341 0.0246,0.3777 0.0634,0.0966 0.1375,0.4121 0.1694,0.7004l0.0548 0.5228 0.6721 0.5977c0.3724,0.3295 0.6745,0.6412 0.6745,0.689 0.0011,0.0506 0.0334,0.1022 0.0739,0.1176 0.0404,0.0134 0.6012,0.4424 1.2492,0.9542 0.6473,0.5095 1.285,0.9721 1.4202,1.027 0.1628,0.0622 0.18,0.0827 0.0549,0.0554 -0.1047,-0.0213 -0.8038,-0.1007 -1.5509,-0.1722l-1.3653 -0.1297 -1.1386 0.3241c-1.1524,0.3295 -1.5974,0.3919 -1.7397,0.2468zm16.6675 -0.9866c-0.0132,-0.0376 -0.3312,-0.2773 -0.7054,-0.5365 -0.5262,-0.3613 -0.9055,-0.7191 -1.6683,-1.5769l-0.9891 -1.1135 -1.8098 -0.7552c-1.1837,-0.4933 -2.4348,-0.9431 -3.6229,-1.3044 -0.9964,-0.3032 -1.8297,-0.5702 -1.8505,-0.5914 -0.023,-0.021 0.1924,-0.0187 0.4781,0.0058 0.5651,0.0521 1.2324,0.2516 4.3595,1.3077 2.6219,0.8829 2.9905,1.0323 3.8615,1.5713 0.7368,0.4549 0.9818,0.6976 2.0012,1.9767 0.5282,0.6587 0.5588,0.7221 0.4625,0.8733 -0.108,0.1677 -0.4678,0.2678 -0.5168,0.1431zm8.2209 -0.4424c0.0233,-0.1712 -0.0111,-0.5345 -0.0776,-0.8132 -0.0634,-0.2824 -0.1127,-0.8047 -0.1092,-1.1987l0.0116 -0.6968 0.0989 0.7732c0.0564,0.4275 0.1393,0.9845 0.1861,1.2392 0.0662,0.3822 0.0596,0.5099 -0.0342,0.7344l-0.119 0.2721 0.0434 -0.3102zm0.1308 -3.4265c-0.2544,-0.8371 -0.4137,-1.452 -0.354,-1.3701 0.176,0.2473 0.9279,2.7807 0.8472,2.8598 -0.0174,0.0182 -0.2386,-0.6523 -0.4932,-1.4897zm-14.3116 -0.9898c-0.2278,-0.0493 -1.1977,-0.3209 -2.1542,-0.6025 -0.9559,-0.2817 -1.8967,-0.5338 -2.0917,-0.5598 -0.3254,-0.0453 -0.3471,-0.0622 -0.2859,-0.2147 0.0369,-0.0892 0.158,-0.4902 0.2649,-0.8882 0.107,-0.4018 0.2941,-0.9239 0.4177,-1.163 0.1244,-0.238 0.2071,-0.3641 0.1846,-0.2771 -0.2068,0.8404 -0.2397,1.4702 -0.0769,1.5352 0.0607,0.0235 0.1722,0.1704 0.2438,0.3246 0.1008,0.2127 0.2434,0.3396 0.5865,0.5186 0.6294,0.3251 2.9944,1.0682 3.5891,1.1289l0.4877 0.0485 -0.375 0.1227c-0.313,0.0996 -0.4419,0.1057 -0.7906,0.0268zm-5.5389 -1.0935c0.1365,-0.0167 0.3583,-0.0167 0.4936,0 0.1352,0.0182 0.0245,0.0303 -0.2453,0.0303 -0.2708,0 -0.3808,-0.0121 -0.2483,-0.0303zm21.7159 -2.696l-0.4015 -0.2536 0.4933 0.0854c0.3805,0.0172 0.4371,-0.1092 0.4617,-0.2457 0.0182,-0.0868 0.0359,0.1046 0.0404,0.2842 0.0126,0.3956 -0.0827,0.4169 -0.5939,0.1297zm-11.4222 -0.4395c0.0767,-0.18 0.2134,-0.4922 0.3047,-0.6907 0.195,-0.4192 0.1937,-0.421 -0.3704,-1.1461 -0.5565,-0.7151 -0.9284,-0.8928 -2.0055,-0.958 -0.4574,-0.0301 -1.0624,-0.0744 -1.3448,-0.1004l-0.5151 -0.0488 0.0496 -0.2394c0.0276,-0.131 0.0776,-0.2721 0.1128,-0.3098 0.0819,-0.0867 1.2078,-0.0703 1.7061,0.0253 0.2933,0.0549 0.5297,0.0326 1.1919,-0.1163 0.4533,-0.1034 0.9721,-0.1876 1.1506,-0.1876 0.3656,0 1.2617,-0.4048 1.6882,-0.7648l0.2569 -0.2182 -0.1775 -0.2554 -0.1775 -0.2559 0.534 0.0499c0.3694,0.0348 0.62,0.0199 0.8265,-0.0544 0.2615,-0.0943 0.3224,-0.0913 0.5757,0.0404 0.1889,0.0982 0.2961,0.2139 0.3272,0.3573 0.024,0.1178 0.112,0.4276 0.195,0.6905 0.2015,0.6425 0.1385,0.9153 -0.3553,1.583 -0.446,0.6028 -1.1688,1.1623 -2.0371,1.5762 -0.29,0.1403 -0.8513,0.5011 -1.247,0.801 -0.3952,0.3011 -0.7441,0.5496 -0.7719,0.5499 -0.0316,0.0008 0.0066,-0.1466 0.0829,-0.3277zm12.008 -1.8062c-0.0323,-0.0306 -0.0543,-0.1335 -0.0543,-0.2256 0,-0.093 -0.0873,-0.2644 -0.1922,-0.3787 -0.1694,-0.1896 -0.2326,-0.2076 -0.6748,-0.1932 -0.3017,0.0109 -0.5333,-0.0207 -0.603,-0.0784 -0.0612,-0.0528 -0.1485,-0.073 -0.1902,-0.049 -0.0455,0.0301 -0.0819,0.0152 -0.0819,-0.0281 0,-0.05 0.1821,-0.0753 0.4713,-0.0639 0.334,0.0139 0.4771,-0.0094 0.4834,-0.0762 0.0205,-0.1974 0.0334,-0.2128 0.089,-0.1216 0.0468,0.0713 0.1512,0.0665 0.4609,-0.0258 0.2536,-0.0783 0.4278,-0.0948 0.4736,-0.0488 0.0445,0.0478 0.2048,0.0478 0.4329,0l0.3615 -0.072 0.7651 -1.2915c0.4215,-0.7084 0.804,-1.4467 0.9165,-1.5517l0.2612 -0.1198 -0.2303 0.3489c-0.1264,0.1901 -0.5113,0.8895 -0.8576,1.5547l-0.6258 1.207 -0.4786 0.2418c-0.4339,0.2194 -0.4802,0.2664 -0.5575,0.5699 -0.044,0.1825 -0.0913,0.3595 -0.0979,0.3954 -0.0109,0.0341 -0.0417,0.0366 -0.0713,0.0066zm-0.8063 -1.4544c-0.0028,-0.0836 0.0149,-0.1279 0.0392,-0.1031 0.0268,0.026 0.0293,0.0915 0.0076,0.1484 -0.026,0.0632 -0.044,0.044 -0.0468,-0.0453zm-18.2027 -0.6123c-0.2177,-0.2663 -0.3337,-0.4867 -0.3648,-0.7115 -0.083,-0.5504 -0.0316,-0.6877 0.2705,-0.7383 0.2703,-0.0435 0.8043,0.0529 0.7279,0.1345 -0.0227,0.0225 -0.1421,0.0061 -0.2637,-0.0361 -0.1562,-0.0559 -0.2748,-0.0531 -0.4015,0.0111 -0.1487,0.0784 -0.1825,0.1588 -0.2018,0.5074 -0.0197,0.3644 0.0018,0.441 0.1833,0.6359 0.1143,0.1224 0.2491,0.2218 0.3002,0.2218 0.0498,0 0.2629,-0.1609 0.4755,-0.3568 0.2129,-0.1937 0.3879,-0.3163 0.3879,-0.2726 0,0.0458 0.1044,0.2059 0.2341,0.3565 0.1287,0.1495 0.217,0.2729 0.1942,0.2729 -0.0212,0 -0.0933,0.0197 -0.158,0.048 -0.0787,0.0283 -0.1206,0.0028 -0.1206,-0.0761 0,-0.0986 -0.0516,-0.114 -0.2455,-0.0738 -0.5082,0.1019 -0.6182,0.1542 -0.6579,0.3064 -0.0362,0.1363 -0.0837,0.1069 -0.3598,-0.2293zm18.4998 0.1416c0.0966,-0.107 0.1929,-0.1937 0.2152,-0.1937 0.0222,0 -0.0423,0.0867 -0.1393,0.1937 -0.0997,0.1051 -0.1955,0.1919 -0.2152,0.1919 -0.0205,0 0.0404,-0.0868 0.1393,-0.1919zm-14.6491 -0.7333c-0.6743,-0.1855 -0.6427,-0.1648 -1.1448,-0.7208 -0.3447,-0.3798 -0.8521,-0.7532 -1.0293,-0.7532 -0.0248,0 -0.0344,0.0627 -0.018,0.1373 0.0162,0.0842 -0.0872,0.225 -0.2758,0.3815 -0.2971,0.241 -0.4228,0.2642 -0.4228,0.0733 0,-0.1782 -0.4713,-0.603 -0.6207,-0.5623 -0.4073,0.1075 0.3125,-0.3527 0.9449,-0.6053l0.2852 -0.1125 -0.0117 -0.6032c-0.0063,-0.3325 0.0132,-0.7995 0.0443,-1.0372 0.0538,-0.4199 0.0763,-0.4568 0.7084,-1.0831l0.6546 -0.6483 -0.6232 0.6592c-0.5201,0.5491 -0.6255,0.6995 -0.6255,0.9092 0,0.137 0.0215,0.25 0.048,0.25 0.0235,0 0.2367,-0.1034 0.472,-0.2291 0.2334,-0.1259 0.6473,-0.2849 0.9176,-0.3544 0.27,-0.0691 0.7383,-0.2632 1.0391,-0.4357 0.3002,-0.1679 0.5472,-0.2925 0.5472,-0.2751 0,0.0193 -0.247,0.2005 -0.5472,0.4038 -0.3008,0.2066 -0.8578,0.6212 -1.2356,0.9206 -0.628,0.4999 -0.7001,0.5856 -0.8389,0.9941 -0.1777,0.5216 -0.1484,0.5747 0.3813,0.6498 0.1917,0.0251 0.3514,0.0769 0.3514,0.1118 0,0.2349 -0.721,0.199 -1.0995,-0.0549 -0.1429,-0.0948 -0.2167,-0.1067 -0.2761,-0.0445 -0.0885,0.0888 -0.0792,0.0976 0.5767,0.333 0.2402,0.0883 0.3249,0.1747 0.4526,0.4728 0.1605,0.3707 0.2892,0.5004 0.2182,0.2147 -0.0425,-0.1646 0.1512,-0.2261 0.2419,-0.0756 0.1156,0.1886 0.6485,0.3759 1.2313,0.427 0.6063,0.0544 0.863,0.1871 0.3752,0.1927 -0.2369,0.0038 -0.231,0.0116 0.1242,0.1542 0.204,0.0797 0.5284,0.1687 0.7175,0.199 0.5166,0.0748 0.6455,0.1813 0.2273,0.1833 -0.1921,0.0018 -0.5484,0.0195 -0.7936,0.0397 -0.3087,0.0293 -0.6142,-0.0061 -0.9962,-0.1118zm1.1744 -0.5977c0.0928,-0.0199 0.2453,-0.0199 0.3403,0 0.0939,0.0172 0.0162,0.0332 -0.1716,0.0332 -0.1856,0 -0.2625,-0.016 -0.1687,-0.0332zm10.2796 -0.624c-0.1461,-0.1694 -0.4703,-1.4839 -0.3835,-1.567 0.0351,-0.0332 0.2505,-0.0789 0.4791,-0.1062l0.4167 -0.0445 -0.3143 0.1165c-0.309,0.1181 -0.3115,0.1221 -0.2501,0.4061 0.065,0.2955 0.2079,1.3319 0.1848,1.3319 -0.0086,0 -0.0667,-0.0632 -0.1327,-0.1368zm4.3349 -0.051c-0.0025,-0.0812 0.0149,-0.1285 0.0399,-0.1014 0.0233,0.0253 0.0281,0.0925 0.0046,0.1484 -0.0235,0.0604 -0.0415,0.042 -0.0445,-0.047zm1.2551 -1.0523c-0.0271,-0.1057 -0.0501,-0.2605 -0.0501,-0.3437 -0.0013,-0.1405 0.0073,-0.1423 0.1191,-0.028 0.0966,0.0981 0.1059,0.1749 0.0521,0.3436l-0.0716 0.2189 -0.0495 -0.1908zm-0.5687 -0.7727c0,-0.1065 0.0167,-0.1489 0.0377,-0.0943 0.0205,0.0521 0.0205,0.138 0,0.1909 -0.021,0.0526 -0.0377,0.0098 -0.0377,-0.0966zm0.6268 -0.579c0.0124,-0.4273 0.0612,-0.8614 0.109,-0.9684 0.069,-0.1577 0.0769,-0.0928 0.0463,0.3494 -0.0203,0.2966 -0.0678,0.7315 -0.1088,0.9656 -0.0624,0.379 -0.0677,0.3426 -0.0465,-0.3466zm-4.7556 0.5469c0.0794,-0.0589 0.1785,-0.0885 0.2177,-0.0622 0.0389,0.023 0.0817,0.2134 0.002,0.2424 -0.2364,0.0976 -0.3764,-0.0614 -0.2197,-0.1802zm3.813 -1.1702c0,-0.1122 0.2059,-0.5777 0.2531,-0.5777 0.0122,0 -0.0118,0.1585 -0.0576,0.3504 -0.0756,0.3346 -0.1955,0.4744 -0.1955,0.2273zm-4.8746 -0.3585c-0.2895,-0.0854 -0.5398,-0.1681 -0.5543,-0.1805 -0.0558,-0.0539 0.3017,-0.6556 0.4559,-0.7661 0.0941,-0.068 0.2804,-0.1234 0.4126,-0.1234 0.5497,0 2.674,-1.1873 5.9945,-3.3498 0.9095,-0.5924 3.3572,-1.9496 3.8206,-2.12 0.1244,-0.0461 0.2916,-0.1108 0.3722,-0.1424 0.3823,-0.1578 -0.0981,0.2071 -1.717,1.3072 -1.668,1.1342 -2.6591,1.8566 -3.4156,2.4917 -0.1898,0.1565 -0.342,0.266 -0.342,0.246 0,-0.0238 0.1656,-0.1788 0.3661,-0.3434 0.2043,-0.1638 0.6556,-0.5719 1.0032,-0.9013l0.6336 -0.6008 -1.2851 0.8041c-0.7072,0.4437 -1.7439,1.0692 -2.3059,1.3883 -0.5613,0.3211 -1.3443,0.7903 -1.74,1.0434 -0.3945,0.2536 -0.8971,0.5601 -1.1183,0.6829l-0.4013 0.2213 0.3264 0.1747c0.1795,0.0963 0.4111,0.1787 0.5146,0.1835 0.1739,0.0099 0.1764,0.0142 0.0386,0.0764 -0.2308,0.1004 -0.4791,0.0802 -1.0588,-0.0918zm5.7452 -0.5934c0.1256,-0.0789 0.2402,-0.1095 0.2551,-0.066 0.0366,0.0953 -0.1393,0.2051 -0.3307,0.2066 -0.1219,0.0005 -0.1098,-0.0248 0.0756,-0.1406zm-17.0961 -1.3405c0.7972,-0.6288 2.2022,-1.4847 2.6561,-1.622 0.2854,-0.0854 1.427,-0.2697 2.0998,-0.3405l0.5087 -0.0549 0 0.3964c0,0.2663 -0.0309,0.3965 -0.0936,0.3978 -0.4973,0.0126 -1.5956,0.2948 -2.0227,0.4138 -0.6189,0.1753 -2.5625,1.2164 -2.6317,1.221 -0.0703,0.0043 -0.7826,1.4197 -1.8162,1.2943 -0.29,0.0505 0.5138,-1.0885 1.2996,-1.7059zm18.115 -0.1029c0.3117,-0.3166 0.582,-0.5805 0.6033,-0.5805 0.0204,0 -0.2165,0.2639 -0.5252,0.5805 -0.311,0.3196 -0.582,0.5823 -0.6025,0.5823 -0.0205,0 0.2154,-0.2627 0.5244,-0.5823zm-16.8189 -0.0999c0.4144,-0.2111 1.2161,-0.425 1.5956,-0.5562 0.7878,-0.2721 2.1698,-0.6195 2.2973,-0.4622 0.1077,0.1335 -0.3153,0.7153 -0.6081,0.9279 -0.2053,0.1497 -0.2447,0.157 -0.36,0.0561 -0.0701,-0.0652 -0.3103,-0.176 -0.5315,-0.2503 -0.3555,-0.1188 -0.4629,-0.1239 -0.8703,-0.0367 -0.2558,0.0526 -0.787,0.2344 -1.1817,0.401 -1.0136,0.4311 -1.2091,0.3606 -0.3413,-0.0796zm18.2704 -0.4892l-0.2791 -0.444 -0.2627 0.2475 -0.2665 0.2443 0.2665 -0.3042c0.3125,-0.3611 0.5456,-0.5795 0.6197,-0.5823 0.0316,-0.0018 0.0354,0.1029 0.0114,0.2296 -0.0349,0.1775 0.0015,0.2933 0.1555,0.5031 0.1125,0.1484 0.1916,0.2703 0.179,0.2703 -0.0111,-0.0018 -0.2377,0.002 -0.4238,-0.1643z"/>
    <path id="_152178312" class="fil6" d="M86.4896 131.082c0.0195,-0.0192 0.553,-0.1952 1.1843,-0.3868 1.0852,-0.3317 1.2081,-0.3899 2.3428,-1.1163 0.9615,-0.6161 1.2659,-0.7721 1.5607,-0.8055 0.3464,-0.0407 0.3641,-0.0339 0.3227,0.1219 -0.0243,0.0915 -0.044,0.1903 -0.044,0.2235 -0.0003,0.0321 -0.7545,0.4437 -1.6761,0.9165 -1.2202,0.622 -1.7893,0.872 -2.0978,0.9201 -0.5858,0.0895 -1.6368,0.1724 -1.5926,0.1266zm-4.1733 -1.2138c-0.1105,-0.0845 -0.3317,-0.2063 -0.4918,-0.2678l-0.2902 -0.1178 0.3041 0.048c0.1917,0.0261 0.3828,0.1267 0.527,0.2706 0.2614,0.2601 0.2412,0.2882 -0.0491,0.067zm18.7726 -1.4665c0,-0.1069 0.0164,-0.1481 0.0374,-0.094 0.0225,0.052 0.0225,0.14 0,0.1921 -0.021,0.0544 -0.0374,0.0086 -0.0374,-0.0981zm-1.5876 -4.7953c0,-0.1064 0.0172,-0.1492 0.038,-0.0945 0.0207,0.0523 0.0207,0.138 0,0.1916 -0.0208,0.0521 -0.038,0.0099 -0.038,-0.0971zm-11.5766 -0.244c0.5272,-0.1936 0.7224,-0.3142 1.0945,-0.6788 0.2499,-0.2448 0.5305,-0.4857 0.6238,-0.5363 0.1274,-0.0705 0.1717,-0.1643 0.176,-0.3803 0.0043,-0.3405 0.45,-1.6573 0.5704,-1.6965 0.0566,-0.0177 0.0237,0.2887 -0.0956,0.8796 -0.0968,0.4971 -0.1621,0.9618 -0.1416,1.0318 0.0225,0.0691 -0.024,0.2607 -0.1021,0.4301 -0.0807,0.1679 -0.2056,0.5059 -0.2797,0.7499l-0.1352 0.4445 -1.1788 -0.0035 -1.1751 -0.0046 0.6434 -0.2359zm11.5038 -0.5299c-0.0078,-0.3886 -0.0007,-0.4129 0.1022,-0.2751 0.0596,0.0822 0.1092,0.1866 0.1084,0.2339 0,0.043 -0.0318,0.0301 -0.069,-0.0311 -0.0511,-0.0794 -0.0771,-0.0271 -0.1004,0.1942 -0.0252,0.252 -0.0321,0.2318 -0.0412,-0.1219zm3.2277 -3.8856c-0.0166,-0.286 -0.0101,-0.5997 0.0124,-0.6945 0.038,-0.1591 0.0466,-0.1626 0.0931,-0.0337 0.068,0.1785 0.0561,0.8018 -0.0185,1.0564 -0.0407,0.1433 -0.0629,0.0586 -0.087,-0.3282zm-1.6376 -0.9861c0,-0.1512 0.0142,-0.2106 0.0342,-0.136 0.0189,0.0728 0.0189,0.1947 0,0.27 -0.02,0.0729 -0.0342,0.0137 -0.0342,-0.134zm-0.1691 -3.0247c0,-0.0536 0.0551,-0.1592 0.1228,-0.2333 0.1067,-0.1216 0.1083,-0.2324 0.0248,-1.0111 -0.0784,-0.7492 -0.1223,-0.9165 -0.2943,-1.1476 -0.2849,-0.3793 -0.4495,-0.4162 -0.3582,-0.4162 0.0427,0 0.2025,-0.003 0.2035,0.0493 0,0.0554 0.1201,0.1808 0.2647,0.2799 0.2607,0.1828 0.315,0.3423 0.2794,0.8227 -0.0061,0.0857 0.0263,0.4046 0.0718,0.7105 0.0822,0.5486 0.0809,0.562 -0.1148,0.801 -0.1085,0.1317 -0.1997,0.1977 -0.1997,0.1448zm-10.697 -0.7757c0.3749,-0.1742 0.7838,-0.409 0.9099,-0.5233 0.1234,-0.1178 0.2915,-0.263 0.3707,-0.3224 0.1449,-0.1102 0.1449,-0.109 0.0015,0.1429 -0.1709,0.2993 -0.3942,0.4439 -1.1974,0.7749 -0.8407,0.3479 -0.8936,0.3026 -0.0847,-0.0721zm13.3141 -1.2715c-0.0726,-0.1939 -0.0508,-0.2432 0.0387,-0.0882 0.0442,0.0801 0.0652,0.1583 0.0452,0.1767 -0.0187,0.021 -0.0559,-0.0189 -0.0839,-0.0885zm-0.1735 -0.8482c-0.001,-0.2546 0.0109,-0.3677 0.0294,-0.2524 0.0167,0.1179 0.0167,0.3244 0.0007,0.4645 -0.0172,0.1401 -0.0301,0.0427 -0.0301,-0.2121zm0.2407 -0.8119c0.0756,-0.0855 0.1545,-0.1537 0.176,-0.1537 0.0195,0 -0.0255,0.0682 -0.1004,0.1537 -0.0756,0.087 -0.1524,0.156 -0.1747,0.156 -0.0222,0 0.0243,-0.069 0.0991,-0.156zm-1.9908 -1.5474c0.0367,-0.1175 0.9833,-0.9799 1.5901,-1.4108 0.5138,-0.3663 0.3631,0.002 -0.2928,0.5181 -0.3171,0.25 -0.807,0.5302 -0.9949,0.7011 -0.1853,0.1702 -0.3226,0.2569 -0.3024,0.1916zm-11.2002 -0.1456c0.7421,-0.4093 0.7398,-0.6723 0.9586,-0.4723 -0.1654,-0.3567 0.0149,-0.2326 0.0733,-0.3532 0.2776,-0.5444 0.6842,-0.3598 0.5992,0.2217l-0.0488 0.3439 -0.4751 0.0384c-0.2596,0.0213 -0.5711,0.0905 -0.695,0.153 -0.1229,0.0642 -0.3244,0.1388 -0.4496,0.1659 -0.2268,0.0485 -0.2268,0.0482 0.0374,-0.0974zm17.1593 -0.3456c0,-0.0319 0.0713,-0.1987 0.1601,-0.3772 0.1557,-0.3083 0.0169,-0.2638 -0.1123,-0.4928l0.0035 -0.3001 0.1983 0.1828 0.1972 0.1835 -0.1955 0.3967c-0.2048,0.4217 -0.2513,0.4946 -0.2513,0.4071z"/>
    <path id="_152231352" class="fil3" d="M84.2538 130.971c-0.8493,-0.3191 -1.3663,-0.6306 -1.8025,-1.0905 -0.2144,-0.2227 -0.3787,-0.3211 -0.6053,-0.358 -0.7838,-0.1249 -1.0705,-0.2797 -2.2452,-1.2136 -0.6417,-0.5077 -1.2068,-0.9421 -1.2583,-0.9664 -0.0534,-0.022 -0.0948,-0.0783 -0.0959,-0.1289 0,-0.0468 -0.3021,-0.357 -0.6745,-0.6865l-0.6721 -0.5977 -0.0548 -0.5228c-0.0319,-0.2883 -0.1047,-0.5983 -0.1626,-0.6926 -0.0979,-0.1506 -0.091,-0.2212 0.0518,-0.6186 0.1431,-0.4003 0.2117,-0.4857 0.6296,-0.7629 0.2581,-0.1742 0.689,-0.4063 0.9585,-0.5162l0.491 -0.1983 1.2852 0.1007c1.2518,0.0955 1.3314,0.113 3.0613,0.6495 1.0796,0.3332 2.4846,0.8447 3.5852,1.3024l1.8098 0.7552 0.9891 1.1135c0.7654,0.8639 1.1401,1.2138 1.6683,1.5746 0.3742,0.2572 0.697,0.4817 0.7162,0.4984 0.0734,0.065 -0.1972,0.1754 -0.4333,0.1762 -0.1795,0.002 -0.574,0.2104 -1.4574,0.778 -1.1666,0.7446 -1.2581,0.7886 -2.4558,1.158 -0.6849,0.2121 -1.3741,0.4007 -1.5294,0.4204 -0.9469,0.1222 -1.0219,0.1163 -1.7989,-0.1739zm16.1272 -2.3049l-0.2807 -0.1223 0.1186 -0.3014c0.093,-0.2422 0.1032,-0.3719 0.0374,-0.6703 -0.042,-0.2023 -0.1208,-0.7413 -0.1689,-1.1952 -0.0495,-0.4568 -0.1218,-0.8224 -0.1608,-0.8116 -0.042,0.0074 -0.1193,-0.1598 -0.1734,-0.3726 -0.0984,-0.3907 -0.2683,-1.8743 -0.2587,-2.3143l0.0025 -0.2391 0.1429 0.2804c0.1487,0.2874 1.0723,3.2575 1.3625,4.3768 0.1308,0.5032 0.151,0.7135 0.0997,1.0437 -0.0557,0.3631 -0.0865,0.4137 -0.2526,0.4283 -0.1047,0.0089 -0.3133,-0.0382 -0.4685,-0.1024zm-15.48 -5.5179c-1.7319,-0.5529 -2.2611,-0.8131 -2.4408,-1.1997 -0.0716,-0.1542 -0.1831,-0.3011 -0.2438,-0.3246 -0.2619,-0.1037 -0.0174,-1.4665 0.4205,-2.36 0.1967,-0.3995 0.2986,-0.7072 0.2986,-0.913 0,-0.2437 0.1085,-0.4933 0.5403,-1.2179 0.2961,-0.5024 0.5608,-1.0174 0.5861,-1.1411 0.0493,-0.2285 0.1095,-0.2634 0.6675,-0.3769 0.1893,-0.0395 0.2455,-0.0236 0.2455,0.0657 0,0.1277 0.1259,0.1115 0.7939,-0.0956 0.4617,-0.1428 0.869,-0.3757 1.0032,-0.5701 0.0802,-0.1183 0.1325,-0.13 0.3032,-0.0635 0.113,0.0438 0.4212,0.132 0.6816,0.1919 0.8842,0.2101 3.3615,-0.1175 4.3496,-0.5762l0.5021 -0.2324 0.1654 0.2392 0.1638 0.2362 -0.2569 0.2182c-0.4265,0.36 -1.3226,0.7648 -1.6882,0.7648 -0.1785,0 -0.6973,0.0842 -1.1506,0.1876 -0.6622,0.1489 -0.8986,0.1712 -1.1919,0.1163 -0.4983,-0.0956 -1.6242,-0.112 -1.7061,-0.0253 -0.0352,0.0377 -0.0852,0.1788 -0.1128,0.3098l-0.0496 0.2394 0.5151 0.0488c0.2824,0.026 0.8874,0.0703 1.3448,0.1004 1.0771,0.0652 1.449,0.2429 2.0055,0.958 0.5434,0.6983 0.5611,0.74 0.4222,1.0346 -0.0627,0.1378 -0.2151,0.4786 -0.3362,0.7557 -0.1224,0.2801 -0.2741,0.5262 -0.3365,0.5522 -0.1368,0.0544 -0.5826,1.3843 -0.5826,1.7342 0,0.1795 -0.0483,0.2751 -0.1709,0.3426 -0.0933,0.0506 -0.3739,0.2915 -0.6238,0.5363 -0.3822,0.3719 -0.5607,0.4814 -1.1213,0.6844 -0.9724,0.3474 -1.2872,0.3262 -2.9969,-0.22zm17.2228 -3.3316c-0.4625,-0.0346 -0.8137,-0.1525 -0.4741,-0.1565 0.0817,-0.0008 0.2612,-0.1006 0.4028,-0.2185 0.2096,-0.1802 0.2599,-0.2836 0.2895,-0.5979 0.0311,-0.336 0.0106,-0.404 -0.1646,-0.5717 -0.1626,-0.1572 -0.2799,-0.1911 -0.64,-0.1942l-0.4381 -0.0027 -0.0865 -0.4301c-0.1441,-0.7158 -0.0784,-0.9873 0.1836,-0.7621 0.0697,0.0577 0.3013,0.0893 0.603,0.0784 0.4366,-0.0141 0.5062,0.0056 0.6682,0.1836 0.201,0.2235 0.3057,0.7342 0.2159,1.0682 -0.0323,0.1161 -0.0379,0.4655 -0.0149,0.7729 0.0673,0.8584 0.0541,0.8751 -0.5448,0.8306zm-0.1558 -3.2639c-0.067,-0.1939 0.0561,-0.446 0.3965,-0.8161 0.7183,-0.7762 0.8958,-1.1482 1.0945,-2.3021 0.0774,-0.4473 0.0756,-0.5782 -0.0116,-0.7504 -0.0562,-0.1156 -0.1029,-0.4157 -0.1029,-0.67 0,-0.3803 0.0326,-0.5019 0.1893,-0.6941 0.105,-0.1256 0.1881,-0.2672 0.1881,-0.3127 0,-0.0488 0.0299,-0.087 0.0655,-0.087 0.0369,0 0.0865,-0.1199 0.1082,-0.265 0.0683,-0.4217 0.2615,-0.6637 0.5366,-0.6657 0.3345,-0.002 0.3982,-0.0665 0.4402,-0.4703 0.0348,-0.3259 0.0887,-0.404 0.6743,-0.9739 0.3474,-0.3388 0.7739,-0.7444 0.9456,-0.9011l0.3137 -0.286 0.5608 0.4157c0.2759,0.2723 0.4379,0.6119 0.4379,0.6599 0,0.0496 -0.2007,0.5315 -0.447,1.0743 -0.244,0.5436 -0.7436,1.6477 -1.1071,2.4563 -0.3654,0.8091 -0.7682,1.5916 -0.8956,1.7431 -0.1284,0.1501 -0.5542,0.8161 -0.9443,1.4811l-0.7123 1.2088 -0.363 0.072c-0.219,0.0451 -0.3899,0.0466 -0.4309,0.0026 -0.0601,-0.061 -0.4611,0.0096 -0.8015,0.1423 -0.0541,0.0218 -0.1155,-0.006 -0.135,-0.0617zm-2.1228 -1.829c-0.6331,-0.6599 -0.7337,-0.8002 -0.7378,-1.0268 -0.0007,-0.1451 -0.0447,-0.4965 -0.0986,-0.7817l-0.1014 -0.5204 0.5752 -0.1962c0.3168,-0.1067 0.6291,-0.1959 0.6981,-0.1959 0.068,0 0.2566,0.1823 0.4212,0.4078 0.2868,0.3863 0.3047,0.443 0.394,1.2814 0.0847,0.7787 0.0831,0.8895 -0.0236,1.0111 -0.0677,0.0741 -0.1228,0.2022 -0.1238,0.2854 0,0.0797 -0.0607,0.2271 -0.1351,0.3247l-0.1327 0.1777 -0.7355 -0.7671zm-11.9589 -0.2865c-0.6341,-0.0748 -1.0981,-0.2371 -1.2096,-0.4217 -0.091,-0.1507 -0.2844,-0.0882 -0.2419,0.0764 0.071,0.2857 -0.0577,0.156 -0.2182,-0.2147 -0.1277,-0.2981 -0.2124,-0.3845 -0.4526,-0.4728 -0.6559,-0.2354 -0.6652,-0.2442 -0.5767,-0.333 0.0594,-0.0622 0.1332,-0.0503 0.2761,0.0445 0.1069,0.0726 0.3426,0.1593 0.5238,0.194 0.2822,0.0536 0.3755,0.0348 0.6235,-0.1196 0.289,-0.179 0.5578,-0.2367 0.5578,-0.1229 0,0.0331 0.1838,0.1737 0.4078,0.3089 0.4718,0.2893 0.8465,0.3206 1.6847,0.1396 1.2487,-0.2703 1.9314,-0.6796 2.5405,-1.5152 0.2364,-0.328 0.4316,-0.6347 0.4316,-0.6842 0,-0.1676 0.4937,-0.0569 0.563,0.1274 0.0862,0.2296 -0.7405,1.3266 -1.4935,1.9802 -1.0177,0.8829 -2.0181,1.1788 -3.4163,1.0131zm-3.5478 -0.0884c-0.1264,-0.0703 -0.3876,-0.1184 -0.6058,-0.1148l-0.3828 0.0063 0.3183 -0.3067c0.1737,-0.1674 0.3671,-0.3072 0.4248,-0.3072 0.1353,0 0.5787,0.4594 0.5787,0.5959 0,0.0549 0,0.1265 0,0.1596 0,0.1036 -0.1077,0.0918 -0.3332,-0.0331zm1.0895 -3.2169c0,-0.2139 0.0963,-0.3529 0.6255,-0.8897 0.695,-0.708 1.4057,-1.1413 2.9281,-1.7911 1.2037,-0.5138 1.6783,-0.6068 2.2042,-0.4306 0.2212,0.0743 0.4637,0.1884 0.5375,0.2534 0.1285,0.114 0.1275,0.1266 -0.0091,0.2824 -0.0776,0.0867 -0.1802,0.2341 -0.227,0.3251 -0.0445,0.0903 -0.1757,0.1871 -0.2931,0.2177 -0.1135,0.0276 -0.3281,0.1287 -0.4738,0.226 -0.4156,0.2772 -1.205,0.5656 -1.7011,0.6243 -0.3205,0.0374 -0.6293,0.1537 -1.0566,0.3909 -0.3357,0.1843 -0.827,0.3911 -1.097,0.4601 -0.2703,0.0696 -0.6842,0.2296 -0.9176,0.3555 -0.2353,0.1257 -0.4485,0.2291 -0.472,0.2291 -0.0265,0 -0.048,-0.114 -0.048,-0.2531zm13.9249 -0.8581l-0.3264 -0.1747 0.4013 -0.2213c0.2212,-0.1228 0.7238,-0.4293 1.1183,-0.6829 0.3957,-0.2531 1.1787,-0.7223 1.74,-1.0434 0.562,-0.3191 1.5987,-0.9446 2.3059,-1.3883l1.2851 -0.8041 -0.6053 0.5699c-0.7954,0.7545 -1.5074,1.3608 -1.921,1.6366 -0.6058,0.402 -1.4718,1.1315 -1.8579,1.5633 -0.3367,0.3768 -0.4374,0.4372 -0.9266,0.5745 -0.6832,0.1891 -0.8098,0.1868 -1.2134,-0.0296z"/>
    <path id="_152248056" class="fil4" d="M83.6616 115.495c-0.1815,-0.1949 -0.203,-0.2715 -0.1833,-0.6359 0.0309,-0.5456 0.1801,-0.6369 0.7805,-0.4796l0.418 0.1087 0.3588 -0.2945c0.2318,-0.1909 0.3509,-0.3424 0.3337,-0.4301 -0.0154,-0.0746 -0.0058,-0.1373 0.019,-0.1373 0.181,0 0.6887,0.3782 1.0588,0.7848l0.4367 0.4842 -0.2673 0.2503c-0.1646,0.1545 -0.4644,0.313 -0.7782,0.4124l-0.5107 0.1603 -0.2116 -0.2061c-0.1201,-0.1171 -0.2342,-0.2738 -0.2597,-0.354 -0.0392,-0.1244 -0.093,-0.0965 -0.4225,0.2094 -0.2116,0.1906 -0.4222,0.3492 -0.472,0.3492 -0.0511,0 -0.1859,-0.0994 -0.3002,-0.2218z"/>
    <path id="_152191000" class="fil7" d="M87.5844 113.385c-0.2101,-0.135 -0.3962,-0.2682 -0.4159,-0.2988 -0.021,-0.0291 -0.0842,-0.07 -0.1398,-0.088 -0.0567,-0.0197 0.2667,-0.2612 0.718,-0.5436 0.8038,-0.5014 1.0124,-0.6002 1.337,-0.6417 0.089,-0.0111 0.3826,-0.1102 0.6536,-0.2184 0.4465,-0.1793 2.3906,-0.4976 2.4808,-0.4064 0.0162,0.018 0.0198,0.2286 -0.1261,0.2906 -0.1454,0.0614 -0.3937,0.2487 -0.6003,0.4106 -0.3099,0.2409 -0.3137,0.1648 -0.4907,0.6042 -0.2068,0.5143 -0.4971,0.6387 -0.8488,0.7709 -0.5259,0.1995 -1.3418,0.3629 -1.7989,0.3611 -0.3067,-0.0005 -0.4754,-0.0544 -0.7689,-0.2405z"/>
    <path id="_152185240" class="fil8" d="M88.1406 113.499c-0.0695,-0.0197 -0.1415,-0.0931 -0.1628,-0.1651 -0.02,-0.0723 -0.0614,-0.1886 -0.087,-0.2587 -0.0705,-0.1737 0.9274,-0.7416 1.3575,-0.7704 0.3692,-0.0273 0.4604,0.0223 0.5059,0.2746 0.0279,0.1418 -0.0083,0.2263 -0.1335,0.309 -0.096,0.0652 -0.1954,0.1843 -0.2204,0.268 -0.0723,0.2339 -0.8678,0.4498 -1.2597,0.3426z"/>
    <path id="_152189712" class="fil4" d="M90.5694 113.056c0,-0.0261 0.086,-0.2643 0.1929,-0.5305 0.1555,-0.381 0.2766,-0.5454 0.5747,-0.7802 0.4463,-0.349 0.8961,-0.5644 0.8961,-0.4296 0,0.1388 -0.8531,1.2862 -1.0207,1.3731 -0.0835,0.0448 -0.2617,0.1555 -0.398,0.2466 -0.1345,0.092 -0.245,0.1458 -0.245,0.1206z"/>
    <path id="_152183648" class="fil9" d="M102.643 125.212c-0.6748,-0.3702 -1.4474,-1.043 -1.9228,-1.673l-0.3304 -0.4337 -0.4579 -0.9853c0.0012,-0.4462 -0.3403,-1.1261 -0.401,-1.5266 -0.1055,-0.671 0.2794,-0.7797 0.3995,-1.1767 0.1534,-0.514 1.05,-1.0197 1.3875,-1.1423 0.3755,-0.1317 0.7755,-0.1039 0.929,0.069 0.1623,0.1833 0.1266,0.7972 -0.059,0.9884 -0.0986,0.1019 -0.1168,0.0955 -0.1641,-0.0498 -0.0652,-0.2142 -0.1441,-0.2038 -0.4788,0.0493 -0.1548,0.113 -0.2872,0.2139 -0.2991,0.2187 -0.09,0.0495 -0.1232,0.9754 -0.0433,1.2515 0.2964,1.0427 1.3724,2.3526 2.3504,2.8662 0.5188,0.272 0.9739,0.336 0.8971,0.1276 -0.0271,-0.0667 0.0043,-0.2232 0.0677,-0.3448 0.1449,-0.2875 -0.0789,-0.5451 -0.2414,-1.2609 -0.1287,-0.5714 0.0548,-0.7037 0.2151,-0.8784 0.0895,-0.1001 0.2124,-0.1785 0.2334,-0.1785 0.022,0 0.1681,0.402 0.3244,0.8948 0.2971,0.9418 0.3487,1.4781 0.2263,2.3266 -0.0817,0.5479 -0.5408,1.0258 -1.0761,1.1158 -0.718,0.1208 -0.9365,0.0834 -1.5565,-0.2579z"/>
    <path id="_152183120" class="fil3" d="M104.267 123.486c-0.0536,-0.0624 -0.1313,-0.0948 -0.1705,-0.0708 -0.0361,0.0263 -0.1297,0.0104 -0.205,-0.0306 -0.1778,-0.0986 -0.3398,-0.9822 -0.2276,-1.1881 0.0658,-0.1183 -0.0566,0.0597 0.2516,-0.3782 0.488,-0.4409 0.4306,-0.4503 0.5891,0.3021 0.1484,0.7085 0.158,1.0202 0.0382,1.2893 -0.1011,0.226 -0.1386,0.2356 -0.2758,0.0763zm-4.2454 -1.0328c-0.308,-0.6283 -0.5312,-1.4705 -0.5312,-2.0027 0.0002,-0.6478 0.6159,-1.5375 1.3714,-1.9823l0.2831 -0.1206 -0.3721 0.3909c-0.2112,0.2576 -0.3922,0.5853 -0.4734,0.8521 -0.1178,0.3967 -0.119,0.4879 -0.0139,1.1605 0.0989,0.6437 0.1512,2.2224 0.0751,2.3 -0.0164,0.0167 -0.1681,-0.2523 -0.339,-0.5979z"/>
    <path id="_152218376" class="fil10" d="M103.939 122.676c-0.067,-0.041 -0.1464,-0.2003 -0.1745,-0.353 -0.0452,-0.243 -0.021,-0.3158 0.1558,-0.5046 0.1158,-0.1232 0.2318,-0.2246 0.2617,-0.2246 0.0604,0 0.14,0.9244 0.089,1.0647 -0.0405,0.1148 -0.1593,0.1201 -0.332,0.0175z"/>
    <path id="_152220488" class="fil11" d="M93.8365 128.26l-0.25 -0.2063 0.2384 -0.5398c0.5636,-1.2736 0.8953,-2.8467 0.8988,-4.2806 0.0016,-0.3974 -0.052,-1.3355 -0.1168,-2.0859 -0.1486,-1.6732 -0.1036,-1.9506 0.3143,-1.9506 0.2754,0 0.443,0.1937 0.2632,0.3069 -0.0731,0.0466 -0.0485,0.2653 0.109,0.9813 0.3163,1.4409 0.4316,2.6917 0.334,3.6623 -0.0895,0.9024 -0.7075,3.1233 -0.9398,3.3769 -0.0738,0.0794 -0.2379,0.3239 -0.3666,0.5454l-0.2359 0.4002 -0.2486 -0.2098z"/>
    <path id="_152207944" class="fil12" d="M97.308 129.97c-0.7641,-0.0976 -0.805,-0.1145 -1.8879,-0.7249 -0.6099,-0.3433 -1.1527,-0.6682 -1.2086,-0.7221 -0.0834,-0.0824 -0.0589,-0.1719 0.1446,-0.5173 0.1338,-0.2273 0.291,-0.4541 0.3479,-0.5041 0.1998,-0.1661 0.8377,-2.4834 0.9234,-3.3542 0.0976,-0.9711 -0.0177,-2.2216 -0.336,-3.6717 -0.1399,-0.6353 -0.178,-0.9327 -0.1194,-0.9526 0.0458,-0.016 0.0845,-0.0784 0.0845,-0.1381 0,-0.1388 -0.0028,-0.1388 0.3898,0.0349 1.2364,0.5456 2.5883,2.385 3.2002,4.3554 0.3962,1.2732 0.5643,2.5273 0.5656,4.1738 0.001,1.9023 0.0447,1.7853 -0.7047,1.9688 -0.5676,0.1409 -0.6781,0.1441 -1.3994,0.0521z"/>
   </g>
  </g>
 </g>
</svg>
